# xmcd CD Database Entry
#
# Track frame offsets:
# 150
# 9975
# 23513
# 39075
# 53400
# 66225
# 78913
# 92313
# 104600
# 114875
# 132013
# 141188
# 150275
# 161063
#
# Disc length: 2359 seconds
#
# Revision: 1
# Processed by: cddbd v1.4PL0 Copyright (c) Steve Scherf et al.
# Submitted via: RSJCDWriter_freedb_lib_OS/2 1.02
#
DISCID=9209350e
DTITLE=Day Warren - Rock 'n' Roll Blues
DYEAR=1900
DGENRE=
TTITLE0=I'm Sorry Now
TTITLE1=Mabellene
TTITLE2=I Almost Lost My Mind
TTITLE3=Tennessee Border
TTITLE4=La La
TTITLE5=Why Did You Leave Me This Way?
TTITLE6=Bony Moronie
TTITLE7=Going to the River
TTITLE8=Pontiac Boogie
TTITLE9=Please Don't Leave Me
TTITLE10=Rosemary
TTITLE11=Honky Tonk Blues
TTITLE12=Sentimental Journey
TTITLE13=That Old Juke-Box
EXTD=p and c 1990 Last Buzz Record Co\nBUZZ-8001
EXTT0=Composer: Cliff "Sleepy" Johnson
EXTT1=Composer: C. Berry - Fratto - A. Freed
EXTT2=Composer: I. Hunter
EXTT3=Composer: Work
EXTT4=Composer: F. Domino - D. Bartholomew
EXTT5=Composer: Day Warren
EXTT6=Composer: Larry Williams
EXTT7=Composer: F. Domino - D. Bartholomew
EXTT8=Composer: Day Warren - Roland Turesson
EXTT9=Composer: Fats Domino
EXTT10=Composer: F. Domino - D. Bartholomew
EXTT11=Composer: Hank Williams
EXTT12=Composer: B. Green - L. Brown - B. Homer
EXTT13=Composer: H. Hausey
PLAYORDER=
